<svg width="37" height="37" viewBox="0 0 37 37" fill="none" xmlns="http://www.w3.org/2000/svg">
<g clip-path="url(#clip0)">
<path d="M14.6458 30.8322H7.70833C6.00787 30.8322 4.625 29.4493 4.625 27.7488V16.9572H1.54167C0.676792 16.9572 0 16.2804 0 15.4155C0 14.9823 0.188083 14.5537 0.502583 14.2716L15.6633 0.203859C15.9578 -0.0705573 16.4157 -0.0705573 16.7117 0.203859L21.5833 4.72248V2.31132C21.5833 1.88582 21.9287 1.54048 22.3542 1.54048H26.9792C27.4047 1.54048 27.75 1.88582 27.75 2.31132V10.439L31.8832 14.2793C32.1869 14.5537 32.375 14.9823 32.375 15.4155C32.375 15.7701 32.2594 16.1046 32.0405 16.3837C31.7768 16.7197 31.2927 16.7768 30.9582 16.5147C30.6237 16.2526 30.5651 15.7685 30.8272 15.4324C30.8333 15.4263 30.8333 15.4232 30.8333 15.4155L26.4535 11.3393C26.2978 11.1944 26.2083 10.9894 26.2083 10.7751V3.08215H23.125V6.48923C23.125 6.79603 22.9431 7.07353 22.6625 7.19532C22.3804 7.31865 22.052 7.26161 21.83 7.05349L16.1875 1.82107L1.54167 15.4109L5.39583 15.4155C5.82133 15.4155 6.16667 15.7608 6.16667 16.1863V27.7488C6.16667 28.5983 6.85733 29.2905 7.70833 29.2905H14.6458C15.0713 29.2905 15.4167 30.0613 15.4167 30.0613C15.4167 30.0613 15.0713 30.8322 14.6458 30.8322Z" fill="black"/>
</g>
<defs>
<clipPath id="clip0">
<rect width="37" height="37" fill="white"/>
</clipPath>
</defs>
</svg>
