<svg width="28" height="28" viewBox="0 0 28 28" fill="none" xmlns="http://www.w3.org/2000/svg">
<path d="M25.7899 28H22.9527C22.9527 23.2137 18.9381 19.3211 14 19.3211C9.06192 19.3211 5.04875 23.2151 5.04875 28H2.21158C2.21158 21.6476 7.50148 16.4839 14.0014 16.4839C20.5 16.4839 25.7899 21.6476 25.7899 28Z" fill="#010002"/>
<path d="M14.0014 15.5619C9.71306 15.5619 6.22192 12.0693 6.22192 7.78093C6.22051 3.49113 9.71164 0 14.0014 0C18.2927 0 21.7838 3.48972 21.7838 7.78093C21.7838 12.0721 18.2927 15.5619 14.0014 15.5619ZM14.0014 2.83717C11.2749 2.83717 9.05767 5.05441 9.05767 7.78093C9.05767 10.5074 11.2749 12.7247 14.0014 12.7247C16.7294 12.7247 18.9466 10.5074 18.9466 7.78093C18.9466 5.05441 16.7265 2.83717 14.0014 2.83717Z" fill="#010002"/>
</svg>
