<svg width="32" height="32" viewBox="0 0 32 32" fill="none" xmlns="http://www.w3.org/2000/svg">
<g clip-path="url(#clip0)">
<path d="M30.4888 24.1727L25.6875 11.0357V3.35026C25.6875 3.00513 25.4077 2.72525 25.0625 2.72525L22.6501 2.72513L21.8041 0.410561C21.6856 0.0863101 21.3268 -0.0802529 21.0025 0.03806L13.6515 2.72475H13.487C13.4966 2.44013 13.394 2.15238 13.1772 1.93557L12.2378 0.996125C12.4046 0.752749 12.3803 0.417686 12.1642 0.201498C11.9201 -0.0426277 11.5244 -0.0425653 11.2802 0.201498L8.75653 2.72519H4.70677C4.36158 2.72519 4.08177 3.00501 4.08177 3.35019V6.22233L1.8837 7.02577C1.72801 7.0827 1.60126 7.19908 1.53145 7.34945C1.46158 7.49977 1.45433 7.67171 1.5112 7.82733L4.08171 14.8605V28.6498C4.08171 28.995 4.36152 29.2748 4.70671 29.2748H9.3499L10.1959 31.5895C10.2885 31.843 10.528 32.0001 10.783 32.0001C10.8542 32.0001 10.9267 31.9878 10.9975 31.962L18.3499 29.2748H25.0624C25.4076 29.2748 25.6874 28.995 25.6874 28.6498V26.593L30.1163 24.9743C30.2719 24.9174 30.3987 24.801 30.4685 24.6507C30.5384 24.5003 30.5457 24.3284 30.4888 24.1727ZM4.08177 11.2191L2.89983 7.98521L4.08177 7.55327V11.2191ZM20.8445 1.42669L21.3192 2.72513L17.2925 2.72494L20.8445 1.42669ZM9.41459 3.83526L11.3619 1.88806L12.1738 2.7C12.0383 2.89382 11.9698 3.12932 11.9829 3.36863C11.9832 3.37476 11.9845 3.38076 11.9849 3.38688C11.9853 3.39332 11.985 3.39976 11.9857 3.40626C11.9868 3.41951 11.9896 3.43244 11.9913 3.44557C11.9935 3.46276 11.9956 3.47994 11.9986 3.49701C12.0018 3.51488 12.006 3.53251 12.0101 3.55019C12.0144 3.56869 12.0185 3.58719 12.0238 3.60538C12.0282 3.62044 12.0334 3.63507 12.0385 3.64988C12.0453 3.67001 12.0519 3.69007 12.0599 3.70976C12.0649 3.72207 12.0708 3.73388 12.0762 3.74601C12.0857 3.76713 12.0952 3.78826 12.106 3.80876C12.1116 3.81932 12.118 3.82938 12.124 3.83976C12.136 3.86063 12.1479 3.88157 12.1613 3.90163C12.1683 3.9122 12.1763 3.92213 12.1838 3.93245C12.1973 3.95126 12.2106 3.9702 12.2253 3.98813C12.2364 4.00157 12.2487 4.01401 12.2605 4.02688C12.273 4.04063 12.2848 4.05488 12.2981 4.06795C12.3237 4.09332 12.3507 4.11738 12.3788 4.14013C12.3792 4.14038 12.3795 4.14076 12.3798 4.14101L13.5127 5.04964L12.0893 6.47308L11.1808 5.3402C11.1147 5.25776 11.0367 5.1872 10.951 5.12864C10.9448 5.12439 10.9391 5.11951 10.9328 5.11539C10.9278 5.11214 10.9225 5.10957 10.9174 5.10645C10.7657 5.01089 10.5909 4.95332 10.4084 4.94332C10.389 4.94226 10.3697 4.94176 10.3504 4.94176C10.3448 4.94176 10.3393 4.94232 10.3338 4.94239C10.3211 4.94257 10.3085 4.9432 10.2958 4.94382C10.2799 4.94464 10.264 4.9457 10.2482 4.94726C10.2356 4.94851 10.223 4.94995 10.2105 4.95164C10.1947 4.95376 10.179 4.9562 10.1634 4.95901C10.1511 4.9612 10.1388 4.96351 10.1266 4.9662C10.1108 4.96957 10.0953 4.97345 10.0798 4.97757C10.068 4.9807 10.0562 4.98376 10.0444 4.98726C10.0287 4.99201 10.0131 4.99732 9.99759 5.00282C9.9864 5.00676 9.97522 5.01051 9.96422 5.01476C9.94822 5.02101 9.93259 5.02795 9.9169 5.03495C9.90672 5.03951 9.89647 5.0437 9.88647 5.04857C9.8694 5.05682 9.85278 5.06595 9.83622 5.07507C9.82803 5.07957 9.81965 5.08364 9.81159 5.08839C9.78715 5.1027 9.76322 5.11789 9.7399 5.1342L8.92778 4.32207L9.41459 3.83526ZM11.1554 30.5734L10.6808 29.2748H14.7084L11.1554 30.5734ZM5.33177 28.0248V3.97526H7.50665L7.24146 4.24045C6.9974 4.48451 6.9974 4.88026 7.24146 5.12432C7.36352 5.24639 7.52346 5.30739 7.6834 5.30739C7.80684 5.30739 7.93009 5.27064 8.03609 5.19795L8.97553 6.13751C9.15153 6.31351 9.37822 6.42026 9.62272 6.4442C9.65765 6.44764 9.6929 6.44933 9.72847 6.44933C9.75534 6.44933 9.78203 6.44833 9.80853 6.44639C9.94859 6.43601 10.083 6.39808 10.2061 6.33608C10.2462 6.31589 10.2853 6.29364 10.3228 6.26833L11.2437 7.41646C11.3618 7.56377 11.5161 7.67552 11.6888 7.74271C11.7925 7.78302 11.9028 7.80721 12.016 7.81339C12.0354 7.81446 12.0547 7.81496 12.074 7.81496C12.0836 7.81496 12.093 7.81383 12.1026 7.81352C12.1195 7.81308 12.1364 7.81227 12.1532 7.81102C12.1724 7.80958 12.1915 7.80752 12.2105 7.80502C12.2274 7.80283 12.2442 7.80052 12.2608 7.79752C12.2797 7.79414 12.2984 7.78996 12.317 7.78558C12.3333 7.78177 12.3497 7.77796 12.3657 7.77333C12.3845 7.76796 12.4029 7.76171 12.4213 7.75533C12.4368 7.75002 12.4523 7.74489 12.4674 7.73883C12.4862 7.73139 12.5044 7.72283 12.5227 7.71433C12.5369 7.70771 12.5513 7.70152 12.5652 7.69433C12.5841 7.68452 12.6023 7.67339 12.6207 7.66246C12.6332 7.65496 12.646 7.64802 12.6583 7.63996C12.6783 7.62683 12.6973 7.61233 12.7165 7.59783C12.7262 7.59046 12.7363 7.58383 12.7458 7.57614C12.774 7.55327 12.8012 7.52902 12.8271 7.50308L13.2431 7.08708L14.0715 7.91552C14.1936 8.03758 14.3535 8.09858 14.5135 8.09858C14.6734 8.09858 14.8334 8.03752 14.9554 7.91552C15.1995 7.67146 15.1995 7.2757 14.9554 7.03164L14.127 6.20326L14.5429 5.78733C14.7566 5.57364 14.8697 5.27801 14.8532 4.97626C14.8366 4.67451 14.6919 4.39295 14.4562 4.20388L14.1711 3.97526H24.4374V28.0248H5.33177ZM25.6874 25.2621V14.6772L29.1001 24.0148L25.6874 25.2621Z" fill="black"/>
<path d="M23.1499 11.3119C23.1418 11.2719 23.13 11.2325 23.1144 11.1944C23.0987 11.1569 23.0793 11.1206 23.0569 11.0869C23.0337 11.0525 23.0081 11.0206 22.9787 10.9919C22.95 10.9631 22.9181 10.9369 22.8837 10.9144C22.8499 10.8919 22.8137 10.8725 22.7762 10.8569C22.7381 10.8413 22.6993 10.8288 22.6593 10.8213C22.5787 10.805 22.4956 10.805 22.4149 10.8213C22.3749 10.8288 22.3356 10.8413 22.2981 10.8569C22.2606 10.8725 22.2237 10.8919 22.19 10.9144C22.1556 10.9369 22.1237 10.9631 22.0949 10.9919C22.0662 11.0206 22.0399 11.0525 22.0175 11.0869C21.995 11.1206 21.9756 11.1569 21.9599 11.1944C21.9443 11.2325 21.9325 11.2719 21.9244 11.3119C21.9162 11.3519 21.9119 11.3931 21.9119 11.4338C21.9119 11.5981 21.9787 11.7594 22.095 11.8757C22.1237 11.9044 22.1556 11.9306 22.1899 11.9532C22.2237 11.9757 22.2606 11.995 22.298 12.0107C22.3356 12.0263 22.3749 12.0382 22.4149 12.0463C22.4549 12.0544 22.4961 12.0588 22.5367 12.0588C22.578 12.0588 22.6186 12.0544 22.6592 12.0463C22.6992 12.0382 22.738 12.0263 22.7761 12.0107C22.8136 11.995 22.8499 11.9757 22.8836 11.9532C22.918 11.9307 22.9499 11.9044 22.9787 11.8757C23.0956 11.7594 23.1618 11.5981 23.1618 11.4338C23.1618 11.3931 23.1581 11.3519 23.1499 11.3119Z" fill="black"/>
<path d="M20.269 10.8088H15.2091C14.8639 10.8088 14.5841 11.0886 14.5841 11.4338C14.5841 11.779 14.8639 12.0588 15.2091 12.0588H20.269C20.6141 12.0588 20.894 11.779 20.894 11.4338C20.894 11.0886 20.6141 10.8088 20.269 10.8088Z" fill="black"/>
<path d="M22.5371 13.377H15.2091C14.8639 13.377 14.5841 13.6568 14.5841 14.002C14.5841 14.3472 14.8639 14.627 15.2091 14.627H22.5371C22.8822 14.627 23.1621 14.3472 23.1621 14.002C23.1621 13.6568 22.8822 13.377 22.5371 13.377Z" fill="black"/>
<path d="M9.97941 9.34558C8.1199 9.34558 6.60709 10.8584 6.60709 12.7179C6.60709 14.5775 8.1199 16.0902 9.97941 16.0902C11.8389 16.0902 13.3517 14.5774 13.3517 12.7179C13.3517 10.8584 11.8389 9.34558 9.97941 9.34558ZM9.97941 14.8402C8.80915 14.8402 7.85703 13.8882 7.85703 12.7178C7.85703 11.5475 8.80909 10.5955 9.97941 10.5955C11.1497 10.5955 12.1017 11.5475 12.1017 12.7178C12.1017 13.8882 11.1497 14.8402 9.97941 14.8402Z" fill="black"/>
<path d="M11.3611 11.7344C11.117 11.4903 10.7213 11.4904 10.4772 11.7345L9.68814 12.5235L9.2762 12.3552C8.9567 12.2247 8.59182 12.3777 8.46113 12.6972C8.33051 13.0167 8.48363 13.3816 8.80314 13.5122L9.5997 13.8378C9.67626 13.8691 9.75651 13.8843 9.83607 13.8843C9.99876 13.8843 10.1586 13.8208 10.2781 13.7012L11.3611 12.6183C11.6051 12.3742 11.6051 11.9785 11.3611 11.7344Z" fill="black"/>
<path d="M23.1499 19.6412C23.1418 19.6018 23.13 19.5625 23.1144 19.5244C23.0987 19.4869 23.0793 19.4506 23.0569 19.4169C23.0337 19.3825 23.0081 19.3506 22.9787 19.3218C22.95 19.2931 22.9181 19.2668 22.8837 19.2437C22.8499 19.2212 22.8137 19.2019 22.7762 19.1862C22.7381 19.1706 22.6993 19.1587 22.6593 19.1506C22.5787 19.1343 22.4956 19.1343 22.4149 19.1506C22.3749 19.1587 22.3356 19.1706 22.2981 19.1862C22.2606 19.2019 22.2237 19.2212 22.19 19.2437C22.1556 19.2668 22.1237 19.2931 22.0949 19.3218C22.0662 19.3506 22.0399 19.3825 22.0175 19.4169C21.995 19.4506 21.9756 19.4869 21.9599 19.5244C21.9443 19.5625 21.9325 19.6018 21.9244 19.6412C21.9162 19.6818 21.9119 19.7231 21.9119 19.7637C21.9119 19.8043 21.9162 19.8456 21.9244 19.8856C21.9325 19.9256 21.9443 19.965 21.9599 20.0025C21.9756 20.0406 21.9949 20.0768 22.0175 20.1106C22.0399 20.145 22.0662 20.1768 22.0949 20.2056C22.1237 20.2343 22.1556 20.2606 22.19 20.2831C22.2237 20.3056 22.2606 20.325 22.2981 20.3406C22.3356 20.3562 22.3749 20.3681 22.4149 20.3762C22.455 20.3843 22.4962 20.3887 22.5368 20.3887C22.5781 20.3887 22.6187 20.3843 22.6593 20.3762C22.6993 20.3681 22.7381 20.3562 22.7762 20.3406C22.8137 20.325 22.8499 20.3056 22.8837 20.2831C22.9181 20.2606 22.95 20.2343 22.9787 20.2056C23.0081 20.1768 23.0337 20.145 23.0569 20.1106C23.0793 20.0768 23.0987 20.0406 23.1144 20.0025C23.13 19.965 23.1418 19.9256 23.1499 19.8856C23.1581 19.8456 23.1618 19.8043 23.1618 19.7637C23.1618 19.7231 23.1581 19.6818 23.1499 19.6412Z" fill="black"/>
<path d="M20.269 19.1386H15.2091C14.8639 19.1386 14.5841 19.4184 14.5841 19.7636C14.5841 20.1088 14.8639 20.3886 15.2091 20.3886H20.269C20.6141 20.3886 20.894 20.1088 20.894 19.7636C20.894 19.4184 20.6141 19.1386 20.269 19.1386Z" fill="black"/>
<path d="M22.5371 21.7069H15.2091C14.8639 21.7069 14.5841 21.9867 14.5841 22.3319C14.5841 22.677 14.8639 22.9569 15.2091 22.9569H22.5371C22.8822 22.9569 23.1621 22.677 23.1621 22.3319C23.1621 21.9867 22.8822 21.7069 22.5371 21.7069Z" fill="black"/>
<path d="M9.97941 17.6754C8.1199 17.6754 6.60709 19.1882 6.60709 21.0478C6.60709 22.9074 8.1199 24.4201 9.97941 24.4201C11.8389 24.4201 13.3517 22.9073 13.3517 21.0478C13.3517 19.1882 11.8389 17.6754 9.97941 17.6754ZM9.97941 23.1701C8.80915 23.1701 7.85703 22.218 7.85703 21.0477C7.85703 19.8774 8.80909 18.9253 9.97941 18.9253C11.1497 18.9253 12.1017 19.8774 12.1017 21.0477C12.1017 22.218 11.1497 23.1701 9.97941 23.1701Z" fill="black"/>
<path d="M11.3611 20.0643C11.117 19.8202 10.7213 19.8202 10.4772 20.0644L9.68814 20.8534L9.2762 20.685C8.9567 20.5545 8.59182 20.7075 8.46113 21.027C8.33051 21.3465 8.48363 21.7115 8.80314 21.8421L9.5997 22.1677C9.67626 22.199 9.75651 22.2142 9.83607 22.2142C9.99876 22.2142 10.1586 22.1507 10.2781 22.0311L11.3611 20.9482C11.6051 20.7041 11.6051 20.3084 11.3611 20.0643Z" fill="black"/>
</g>
<defs>
<clipPath id="clip0">
<rect width="32" height="32" fill="white"/>
</clipPath>
</defs>
</svg>
