<svg width="29" height="29" viewBox="0 0 29 29" fill="none" xmlns="http://www.w3.org/2000/svg">
<g clip-path="url(#clip0)">
<path d="M14.5372 28.9434L1.98248 21.6931V7.19336L14.5372 -0.0566406L27.0918 7.19336V21.6931L14.5372 28.9434ZM3.68281 20.7117L14.5372 26.9797L25.3914 20.7117V8.17506L14.5372 1.90698L3.68281 8.17506V20.7117Z" fill="black"/>
<path d="M8.48682 17.9312L4.99899 14.4434L8.48682 10.9553L9.68932 12.1578L7.40356 14.4434L9.68932 16.7289L8.48682 17.9312Z" fill="black"/>
<path d="M20.5873 17.9312L19.385 16.7289L21.6706 14.4434L19.385 12.1578L20.5873 10.9553L24.0754 14.4434L20.5873 17.9312Z" fill="black"/>
<path d="M15.7777 10.0603L17.2984 10.8206L13.2962 18.8253L11.7753 18.0648L15.7777 10.0603Z" fill="black"/>
</g>
<defs>
<clipPath id="clip0">
<rect width="29" height="29" fill="white"/>
</clipPath>
</defs>
</svg>
