<svg width="27" height="27" viewBox="0 0 27 27" fill="none" xmlns="http://www.w3.org/2000/svg">
<path d="M22.6443 0.951428H12.1234L12.0923 0.870271C11.8902 0.346209 11.386 0 10.824 0H4.59654C3.41632 0 2.42432 0.93675 2.42432 2.11697V24.8822C2.42432 26.0607 3.41546 27 4.59654 27H20.7941C21.0488 27 21.2862 26.8739 21.4296 26.6659C21.5729 26.4569 21.6048 26.1902 21.5159 25.9545H22.6452C23.7373 25.9545 24.5757 25.073 24.5757 23.9817V2.93112C24.5748 1.83983 23.7356 0.951428 22.6443 0.951428ZM22.3896 23.6735H20.6715L19.7089 21.1291C20.2347 21.0333 20.6309 20.5861 20.6309 20.0326C20.6309 19.4084 20.1267 18.9198 19.5008 18.9198H18.8714L18.084 16.8287H19.6925C20.3167 16.8287 20.8209 16.3107 20.8209 15.6873C20.8209 15.064 20.3167 14.5477 19.6925 14.5477H17.2405L16.4531 12.4558H19.6925C20.3167 12.4558 20.8209 11.9852 20.8209 11.3627C20.8209 10.7385 20.3167 10.268 19.6925 10.268H15.6096L14.8222 8.17779H19.6925C20.3167 8.17779 20.8209 7.65977 20.8209 7.03642C20.8209 6.41393 20.3167 5.89678 19.6925 5.89678H13.9796L12.966 3.23416H22.3888V23.6735H22.3896Z" fill="black"/>
</svg>
