<svg width="24" height="24" viewBox="0 0 24 24" fill="none" xmlns="http://www.w3.org/2000/svg">
<path d="M21.9287 20.243L20.2117 17.381C19.4187 16.06 18.9997 14.547 18.9997 13.007V10.5C18.9997 7.335 16.8877 4.65802 13.9997 3.795V2.00002C13.9997 0.897 13.1027 0 11.9996 0C10.8966 0 9.99962 0.897 9.99962 2.00002V3.795C7.11166 4.65802 4.99966 7.335 4.99966 10.5V13.007C4.99966 14.547 4.58064 16.059 3.78864 17.38L2.07166 20.242C1.97866 20.397 1.97664 20.589 2.06566 20.746C2.15467 20.903 2.31967 21 2.49967 21H21.4997C21.6797 21 21.8456 20.9031 21.9347 20.7471C22.0237 20.591 22.0207 20.397 21.9287 20.243Z" fill="white"/>
<path d="M8.85071 22C9.41471 23.178 10.6087 24 11.9997 24C13.3906 24 14.5847 23.178 15.1487 22H8.85071Z" fill="white"/>
</svg>
