<svg width="26" height="26" viewBox="0 0 26 26" fill="none" xmlns="http://www.w3.org/2000/svg">
<g clip-path="url(#clip0)">
<path d="M22.1433 9.94149H24.4704V8.41211H22.1442C21.9819 6.45557 21.2033 4.6716 20.0034 3.25483L21.6514 1.60677L20.57 0.52534L18.922 2.17335C15.5016 -0.723451 10.5008 -0.725439 7.07798 2.17335L5.42997 0.52534L4.34854 1.60677L5.99655 3.25483C4.79665 4.6716 4.01799 6.45557 3.85583 8.41211H1.52964V9.94149H3.85674C4.0109 11.7983 4.72416 13.6014 5.99365 15.1018L4.34854 16.7469L5.42997 17.8283L7.07482 16.1835C7.49076 16.5355 7.93785 16.8512 8.4119 17.1253V22.9412H9.94128V26H16.0588V22.9412H17.5882V17.1253C18.0622 16.8511 18.5093 16.5355 18.9253 16.1834L20.5701 17.8283L21.6516 16.7468L20.0064 15.1017C21.2746 13.6028 21.9889 11.7996 22.1433 9.94149ZM14.5294 24.4706H11.4706V22.9412H14.5294V24.4706ZM9.94123 21.4119V19.8825H16.0588V21.4119H9.94123ZM12.2353 9.94149C12.2353 9.51984 12.5783 9.1768 13 9.1768C13.4216 9.1768 13.7647 9.51984 13.7647 9.94149C13.7647 10.3631 13.4216 10.7062 13 10.7062C12.5783 10.7062 12.2353 10.3631 12.2353 9.94149ZM16.4754 15.9902L16.0588 16.2032V18.3531H13.7647V12.104C14.6547 11.7884 15.2941 10.9384 15.2941 9.94149C15.2941 8.67654 14.265 7.64742 13 7.64742C11.735 7.64742 10.7059 8.67654 10.7059 9.94149C10.7059 10.9384 11.3453 11.7884 12.2353 12.104V18.3531H9.94123V16.2032L9.52458 15.9902C6.9515 14.6749 5.35309 12.0641 5.35309 9.1768C5.35309 4.96029 8.78349 1.52989 13 1.52989C17.2165 1.52989 20.6469 4.96029 20.6469 9.1768C20.6469 12.0641 19.0485 14.6749 16.4754 15.9902Z" fill="black"/>
</g>
<defs>
<clipPath id="clip0">
<rect width="26" height="26" fill="white"/>
</clipPath>
</defs>
</svg>
