<?xml version="1.0" encoding="UTF-8"?>
<!DOCTYPE svg PUBLIC "-//W3C//DTD SVG 1.1//EN" "http://www.w3.org/Graphics/SVG/1.1/DTD/svg11.dtd">
<!-- Creator: CorelDRAW 2021 (64-Bit) -->
<svg xmlns="http://www.w3.org/2000/svg" xml:space="preserve" width="173mm" height="42mm" version="1.1" style="shape-rendering:geometricPrecision; text-rendering:geometricPrecision; image-rendering:optimizeQuality; fill-rule:evenodd; clip-rule:evenodd"
viewBox="0 0 17300 4200"
 xmlns:xlink="http://www.w3.org/1999/xlink"
 xmlns:xodm="http://www.corel.com/coreldraw/odm/2003">
 <defs>
  <style type="text/css">
   <![CDATA[
    .fil0 {fill:#2B2A29;fill-rule:nonzero}
    .fil2 {fill:#9D9E9E;fill-rule:nonzero}
    .fil1 {fill:#FEFEFE;fill-rule:nonzero}
   ]]>
  </style>
 </defs>
 <g id="Слой_x0020_1">
  <metadata id="CorelCorpID_0Corel-Layer"/>
  <g id="_3210451395360">
   <path class="fil0" d="M9146.18 2108.2c0,-1109.21 -899.19,-2008.41 -2008.42,-2008.41 -1109.21,0 -2008.41,899.2 -2008.41,2008.41 0,1109.23 899.2,2008.42 2008.41,2008.42 1109.23,0 2008.42,-899.19 2008.42,-2008.42zm-885.2 0.01c0,-85.45 14.06,-171.47 42.17,-258.05 28.11,-86.58 69.15,-165.29 123.12,-236.13 53.97,-70.84 119.19,-128.75 195.65,-173.72 76.46,-44.98 163.04,-67.47 259.74,-67.47l1966.61 0c44.98,0 83.21,15.74 114.69,47.23 31.49,31.48 47.23,69.71 47.23,114.69 0,44.97 -15.74,83.2 -47.23,114.69 -31.48,31.48 -69.71,47.22 -114.69,47.22l-1895.77 0c-78.71,0 -142.24,14.06 -190.59,42.17 -48.35,28.11 -86.58,62.4 -114.69,102.88 -28.11,40.48 -47.22,84.9 -57.34,133.25 -10.12,48.35 -15.18,92.76 -15.18,133.24 0,40.48 5.06,84.9 15.18,133.25 10.12,48.35 29.23,92.76 57.34,133.24 28.11,40.48 66.34,74.77 114.69,102.88 48.35,28.11 111.88,42.17 190.59,42.17l1895.77 0c44.98,0 83.21,15.74 114.69,47.22 31.49,31.49 47.23,69.72 47.23,114.7 0,44.97 -15.74,83.2 -47.23,114.69 -31.48,31.48 -69.71,47.22 -114.69,47.22l-2000.34 0c-92.2,0 -174.28,-22.49 -246.25,-67.46 -71.96,-44.98 -133.24,-102.89 -183.84,-173.73 -50.6,-70.83 -89.39,-150.11 -116.38,-237.81 -26.98,-87.71 -40.48,-173.16 -40.48,-256.37zm5933.56 573.46c0,44.97 -15.74,83.2 -47.22,114.69 -31.48,31.48 -69.72,47.22 -114.69,47.22 -44.98,0 -83.21,-15.74 -114.69,-47.22 -31.49,-31.49 -47.23,-69.72 -47.23,-114.69l0 -735.38c0,-92.2 -5.62,-138.3 -16.86,-138.3 -9,0 -40.48,30.36 -94.46,91.08l-742.11 843.31c-29.24,33.74 -65.22,59.04 -107.95,75.9 -42.73,16.87 -88.83,25.3 -138.3,25.3 -49.48,0 -95.58,-8.43 -138.3,-25.3 -42.73,-16.86 -78.71,-42.16 -107.95,-75.9l-742.12 -843.31c-51.72,-60.72 -83.2,-91.08 -94.45,-91.08 -11.24,0 -16.86,46.1 -16.86,138.3l0 735.38c0,44.97 -15.75,83.2 -47.23,114.69 -31.48,31.48 -69.71,47.22 -114.69,47.22 -44.98,0 -83.21,-15.74 -114.69,-47.22 -31.49,-31.49 -47.23,-69.72 -47.23,-114.69l0 -985c0,-89.95 25.86,-166.41 77.59,-229.38 51.72,-62.97 122.56,-94.45 212.51,-94.45 53.98,0 102.33,13.49 145.05,40.48 42.73,26.99 82.09,59.59 118.07,97.82l775.85 883.8c11.24,11.24 25.3,23.05 42.16,35.42 16.87,12.37 34.3,18.55 52.29,18.55 17.99,0 35.42,-6.18 52.28,-18.55 16.87,-12.37 30.93,-24.18 42.17,-35.42l772.48 -883.8 3.37 0c31.48,-42.72 69.71,-76.46 114.69,-101.19 44.98,-24.74 94.45,-37.11 148.42,-37.11 89.96,0 160.8,31.48 212.52,94.45 51.72,62.97 77.58,139.43 77.58,229.38l0 985zm785.98 -411.54c-62.97,0 -121.44,-11.81 -175.41,-35.42 -53.98,-23.61 -101.2,-55.66 -141.68,-96.14 -40.48,-40.48 -72.52,-87.7 -96.14,-141.68 -23.61,-53.97 -35.42,-112.44 -35.42,-175.41 0,-62.96 11.81,-121.43 35.42,-175.41 23.62,-53.97 55.66,-101.19 96.14,-141.67 40.48,-40.48 87.7,-72.53 141.68,-96.14 53.97,-23.61 112.44,-35.42 175.41,-35.42l2047.57 0c44.97,0 83.2,15.74 114.69,47.23 31.48,31.48 47.22,69.71 47.22,114.69 0,44.97 -15.74,83.2 -47.22,114.69 -31.49,31.48 -69.72,47.22 -114.69,47.22l-2054.32 0c-33.73,0 -63.53,11.81 -89.39,35.42 -25.86,23.62 -38.79,53.41 -38.79,89.39 0,33.74 12.93,62.97 38.79,87.71 25.86,24.74 55.66,37.1 89.39,37.1l1865.41 0c62.97,0 122,11.81 177.1,35.42 55.1,23.62 102.88,55.66 143.36,96.14 40.48,40.48 72.53,88.27 96.14,143.37 23.61,55.09 35.42,114.12 35.42,177.09 0,62.97 -11.81,121.44 -35.42,175.41 -23.61,53.97 -55.66,101.2 -96.14,141.68 -40.48,40.48 -88.26,71.96 -143.36,94.45 -55.1,22.49 -114.13,33.73 -177.1,33.73l-2044.19 0c-44.98,0 -83.21,-15.74 -114.69,-47.22 -31.49,-31.49 -47.23,-69.72 -47.23,-114.69 0,-44.98 15.74,-83.21 47.23,-114.7 31.48,-31.48 69.71,-47.22 114.69,-47.22l2057.69 0c33.73,0 62.96,-11.81 87.7,-35.42 24.74,-23.61 37.11,-52.29 37.11,-86.02 0,-35.98 -12.37,-66.34 -37.11,-91.08 -24.74,-24.73 -53.97,-37.1 -87.7,-37.1l-1872.16 0zm-12923.27 226c76.46,0 139.43,-14.05 188.9,-42.16 49.48,-28.12 88.27,-62.41 116.38,-102.89 28.11,-40.48 47.23,-84.89 57.35,-133.24 10.12,-48.35 15.18,-92.77 15.18,-133.25 0,-40.47 -5.06,-84.89 -15.18,-133.24 -10.12,-48.35 -29.24,-92.76 -57.35,-133.24 -28.11,-40.48 -66.9,-74.78 -116.38,-102.89 -49.47,-28.11 -112.44,-42.16 -188.9,-42.16l-1362.79 0c-78.71,0 -142.24,14.05 -190.59,42.16 -48.35,28.11 -86.58,62.41 -114.69,102.89 -28.11,40.48 -47.23,84.89 -57.35,133.24 -10.12,48.35 -15.18,92.77 -15.18,133.24 0,40.48 5.06,84.9 15.18,133.25 10.12,48.35 29.24,92.76 57.35,133.24 28.11,40.48 66.34,74.77 114.69,102.89 48.35,28.11 111.88,42.16 190.59,42.16l1362.79 0zm691.52 -411.54c0,85.46 -14.06,171.48 -42.17,258.06 -28.11,86.58 -69.15,165.29 -123.12,236.13 -53.97,70.83 -119.19,128.74 -195.65,173.72 -76.46,44.97 -163.04,67.46 -259.74,67.46l-1538.2 0c-92.2,-4.49 -174.29,-29.79 -246.25,-75.9 -71.96,-46.1 -133.24,-104 -183.84,-173.72 -50.6,-69.71 -89.39,-147.3 -116.38,-232.75 -26.98,-85.46 -40.48,-169.79 -40.48,-253 0,-85.45 14.06,-171.47 42.17,-258.05 28.11,-86.58 69.15,-165.29 123.12,-236.13 53.97,-70.84 119.19,-128.74 195.65,-173.72 76.46,-44.98 163.04,-67.46 259.74,-67.46l1538.2 0c92.2,4.49 174.29,29.79 246.25,75.89 71.96,46.1 133.24,104.01 183.84,173.73 50.6,69.71 89.39,147.29 116.38,232.75 26.99,85.46 40.48,169.79 40.48,252.99zm-37.19 573.46c0,-58.47 20.24,-107.95 60.72,-148.43 40.48,-40.48 89.95,-60.71 148.42,-60.71 58.47,0 107.95,20.23 148.43,60.71 40.48,40.48 60.72,89.96 60.72,148.43 0,58.47 -20.24,107.94 -60.72,148.42 -40.48,40.48 -89.96,60.72 -148.43,60.72 -58.47,0 -107.94,-20.24 -148.42,-60.72 -40.48,-40.48 -60.72,-89.95 -60.72,-148.42zm2863.81 -1308.82c44.98,0 83.21,15.74 114.7,47.22 31.48,31.48 47.22,69.72 47.22,114.69 0,44.98 -15.74,83.21 -47.22,114.69 -31.49,31.49 -69.72,47.23 -114.7,47.23l-998.48 0 0 984.99c0,44.97 -15.74,83.2 -47.22,114.69 -31.49,31.48 -69.72,47.22 -114.69,47.22 -44.98,0 -83.21,-15.74 -114.69,-47.22 -31.49,-31.49 -47.23,-69.72 -47.23,-114.69l0 -984.99 -1011.97 0c-40.48,-4.5 -75.34,-21.93 -104.58,-52.29 -29.23,-30.36 -43.85,-66.9 -43.85,-109.63 0,-44.97 15.74,-83.21 47.23,-114.69 31.48,-31.48 69.71,-47.22 114.69,-47.22l2320.79 0z"/>
   <path class="fil1" d="M6291.42 1991.62l1415.99 -545.55c65.72,-23.73 123.12,16.02 101.83,115.32l0.12 -0.12 -241.1 1135c-17.87,80.47 -65.72,100.04 -132.67,62.13l-367.15 -270.39 -177.09 170.47c-19.58,19.57 -36.11,36.08 -74.05,36.08l26.07 -373.36 680.46 -614.28c29.62,-26.05 -6.6,-40.72 -45.65,-14.8l-840.9 529.04 -362.51 -113c-78.69,-24.94 -80.41,-78.63 16.65,-116.54l0 0z"/>
   <path class="fil2" d="M2739.93 3466.08c0,-100.48 27.09,-179.22 81.14,-236.08 54.05,-56.87 123.75,-85.24 209.27,-85.24 56.02,0 106.4,13.41 151.41,40.08 44.87,26.67 79.16,63.92 102.73,111.76 23.57,47.7 35.42,101.88 35.42,162.42 0,61.38 -12.42,116.42 -37.25,164.82 -24.84,48.54 -59.98,85.23 -105.41,110.07 -45.58,24.97 -94.69,37.39 -147.33,37.39 -57.15,0 -108.09,-13.83 -153.1,-41.35 -44.88,-27.51 -79.02,-65.05 -102.17,-112.74 -23.14,-47.56 -34.71,-97.94 -34.71,-151.13zm82.97 1.41c0,72.95 19.62,130.38 58.85,172.29 39.23,41.91 88.47,62.94 147.74,62.94 60.4,0 109.93,-21.17 149.02,-63.5 38.94,-42.33 58.42,-102.45 58.42,-180.34 0,-49.25 -8.33,-92.29 -24.98,-128.98 -16.65,-36.69 -41.06,-65.19 -73.1,-85.37 -32.17,-20.18 -68.15,-30.34 -108.09,-30.34 -56.73,0 -105.55,19.47 -146.47,58.42 -40.92,38.95 -61.39,103.86 -61.39,194.88zm600.15 293.65l0 -606.22 228.89 0c40.21,0 70.98,1.98 92.28,5.79 29.78,4.94 54.76,14.39 74.93,28.22 20.18,13.97 36.41,33.45 48.69,58.42 12.27,24.98 18.34,52.5 18.34,82.55 0,51.37 -16.37,94.97 -49.25,130.53 -32.73,35.7 -92.14,53.48 -177.94,53.48l-155.5 0 0 247.23 -80.44 0zm80.44 -318.35l156.63 0c51.93,0 88.62,-9.59 110.49,-28.93 21.73,-19.33 32.6,-46.42 32.6,-81.56 0,-25.26 -6.35,-46.99 -19.19,-65.05 -12.84,-18.06 -29.78,-30.06 -50.66,-35.84 -13.55,-3.53 -38.53,-5.37 -74.79,-5.37l-155.08 0 0 216.75zm485.99 318.35l0 -606.22 437.73 0 0 71.12 -357.3 0 0 186.27 334.44 0 0 71.12 -334.44 0 0 206.59 371.69 0 0 71.12 -452.12 0zm562.19 0l0 -606.22 82.41 0 318.06 475.83 0 -475.83 77.05 0 0 606.22 -82.41 0 -318.07 -475.83 0 475.83 -77.04 0z"/>
   <path class="fil2" d="M9381.32 3761.14l0 -535.1 -199.82 0 0 -71.12 480.07 0 0 71.12 -199.82 0 0 535.1 -80.43 0zm364.77 0l0 -606.22 437.73 0 0 71.12 -357.3 0 0 186.27 334.44 0 0 71.12 -334.44 0 0 206.59 371.69 0 0 71.12 -452.12 0zm559.65 0l0 -606.22 80.43 0 0 535.1 298.03 0 0 71.12 -378.46 0zm475.97 0l0 -606.22 437.73 0 0 71.12 -357.3 0 0 186.27 334.44 0 0 71.12 -334.44 0 0 206.59 371.69 0 0 71.12 -452.12 0zm846.67 -237.91l0 -71.12 256.54 0 0 224.65c-39.37,31.32 -80.01,55.03 -121.92,70.83 -41.91,15.81 -84.95,23.71 -128.98,23.71 -59.55,0 -113.59,-12.7 -162.28,-38.24 -48.54,-25.4 -85.37,-62.37 -110.06,-110.49 -24.84,-48.26 -37.26,-102.17 -37.26,-161.57 0,-58.99 12.28,-114.02 36.97,-165.25 24.7,-51.08 60.12,-89.04 106.4,-113.73 46.29,-24.84 99.63,-37.26 160.02,-37.26 43.75,0 83.4,7.06 118.82,21.31 35.42,14.25 63.22,34.01 83.26,59.27 20.17,25.4 35.41,58.56 45.86,99.34l-72.39 19.76c-9.18,-30.77 -20.46,-55.04 -33.87,-72.82 -13.55,-17.64 -32.74,-31.75 -57.86,-42.33 -24.97,-10.58 -52.77,-15.95 -83.39,-15.95 -36.55,0 -68.16,5.65 -94.97,16.8 -26.67,11.14 -48.12,25.82 -64.63,44.16 -16.37,18.21 -29.07,38.25 -38.1,59.98 -15.38,37.67 -23.14,78.31 -23.14,122.2 0,54.19 9.31,99.48 27.8,136.03 18.62,36.41 45.72,63.5 81.14,81.14 35.56,17.64 73.23,26.53 113.17,26.53 34.71,0 68.58,-6.77 101.6,-20.18 33.02,-13.55 57.99,-27.8 75.07,-43.18l0 -113.59 -177.8 0zm376.63 237.91l0 -606.22 268.67 0c54.05,0 95.11,5.51 123.19,16.37 28.09,10.87 50.52,30.06 67.31,57.58 16.8,27.51 25.12,57.99 25.12,91.3 0,43.04 -13.97,79.3 -41.77,108.79 -27.8,29.5 -70.69,48.12 -128.83,56.17 21.31,10.16 37.39,20.32 48.4,30.19 23.42,21.45 45.58,48.4 66.32,80.72l104.85 165.1 -100.19 0 -80.15 -126.15c-23.29,-36.55 -42.62,-64.35 -57.72,-83.68 -15.24,-19.34 -28.78,-32.74 -40.78,-40.5 -11.85,-7.62 -24.13,-12.98 -36.55,-16.09 -9.03,-1.83 -23.84,-2.82 -44.59,-2.82l-92.85 0 0 269.24 -80.43 0zm80.43 -338.67l172.16 0c36.69,0 65.19,-3.81 85.79,-11.43 20.61,-7.48 36.27,-19.61 46.85,-36.4 10.73,-16.66 16.09,-34.72 16.09,-54.33 0,-28.65 -10.3,-52.36 -31.05,-70.84 -20.74,-18.49 -53.48,-27.66 -98.21,-27.66l-191.63 0 0 200.66zm462.85 338.67l232.55 -606.22 88.2 0 246.8 606.22 -91.3 0 -70.13 -183.73 -255.27 0 -65.76 183.73 -85.09 0zm174.41 -248.92l206.59 0 -63.22 -168.06c-19.05,-51.09 -33.44,-93.28 -43.46,-126.58 -8.32,39.51 -19.47,78.31 -33.44,116.7l-66.47 177.94zm455.09 248.92l0 -606.22 120.23 0 143.37 429.12c13.26,39.94 22.86,69.86 28.92,89.75 6.92,-22.01 17.78,-54.47 32.46,-97.22l145.91 -421.65 107.39 0 0 606.22 -77.05 0 0 -507.16 -176.96 507.16 -72.24 0 -174.98 -516.47 0 516.47 -77.05 0z"/>
  </g>
 </g>
</svg>
