<svg width="23" height="22" viewBox="0 0 23 22" fill="none" xmlns="http://www.w3.org/2000/svg">
<path d="M11.5 8.25C9.91493 8.25 8.625 9.48385 8.625 11C8.625 12.5162 9.91493 13.75 11.5 13.75C13.0851 13.75 14.375 12.5162 14.375 11C14.375 9.48385 13.0851 8.25 11.5 8.25Z" fill="white"/>
<path d="M22.2228 9.13L20.954 8.89625C20.3857 8.79265 19.9401 8.437 19.7283 7.92365C19.5165 7.40755 19.5912 6.85665 19.9344 6.41025L20.7307 5.37075C21.0105 5.00685 20.9694 4.50085 20.6349 4.18185L18.9147 2.53645C18.5908 2.2257 18.079 2.17985 17.7005 2.42554L16.6301 3.11764C16.1528 3.42839 15.5759 3.47879 15.044 3.25879C14.5141 3.03695 14.1585 2.59695 14.0713 2.0497L13.8663 0.777348C13.7942 0.33 13.3918 0 12.9183 0H10.4861C10.027 0 9.63219 0.311652 9.545 0.743402L9.22969 2.3109C9.12332 2.84165 8.763 3.26515 8.24069 3.4714C7.71839 3.6795 7.14914 3.62355 6.6815 3.32015L5.29957 2.4255C4.92101 2.17985 4.41119 2.22565 4.08537 2.5364L2.36518 4.18185C2.03074 4.50085 1.9895 5.00685 2.26936 5.37075L3.06574 6.41115C3.40881 6.85665 3.48356 7.40755 3.2718 7.92365C3.05999 8.437 2.61436 8.79265 2.04511 8.89625L0.777238 9.13C0.325818 9.2134 0 9.5911 0 10.0302V12.3567C0 12.8095 0.345 13.1945 0.812682 13.2633L2.14286 13.4594C2.71499 13.5428 3.17499 13.8829 3.40692 14.3898C3.63786 14.8967 3.58423 15.4495 3.25935 15.9078L2.53579 16.9308C2.27799 17.2938 2.32686 17.7815 2.65174 18.0922L4.37193 19.7376C4.70638 20.0585 5.23443 20.0951 5.61487 19.8293L6.70257 19.0675C7.16832 18.7403 7.74332 18.6697 8.28382 18.8704C8.8205 19.073 9.19232 19.4993 9.30062 20.0438L9.545 21.2565C9.63219 21.6883 10.0271 22 10.4861 22H12.9183C13.3918 22 13.7942 21.67 13.8661 21.2227L14.0099 20.328C14.0999 19.7679 14.4651 19.3233 15.0113 19.1079C15.5538 18.8916 16.1431 18.9585 16.6213 19.294L17.3851 19.8293C17.7637 20.0952 18.2936 20.0585 18.6281 19.7377L20.3483 18.0923C20.6731 17.7815 20.722 17.2939 20.4642 16.9309L19.7406 15.907C19.4158 15.4496 19.3621 14.8968 19.5931 14.3899C19.825 13.883 20.285 13.5429 20.8571 13.4595L22.1873 13.2633C22.655 13.1946 23 12.8096 23 12.3567V10.0302C23 9.5911 22.6742 9.2134 22.2228 9.13ZM11.5 15.5833C8.85787 15.5833 6.70832 13.5273 6.70832 11C6.70832 8.47275 8.85787 6.41665 11.5 6.41665C14.1421 6.41665 16.2917 8.47275 16.2917 11C16.2917 13.5273 14.1421 15.5833 11.5 15.5833Z" fill="white"/>
</svg>
