<svg width="32" height="32" viewBox="0 0 32 32" fill="none" xmlns="http://www.w3.org/2000/svg">
<g clip-path="url(#clip0)">
<path d="M24.6667 32H3.33333C1.496 32 0 30.5053 0 28.6667V10C0 8.16133 1.496 6.66667 3.33333 6.66667H12.6667C13.0347 6.66667 13.3333 6.96533 13.3333 7.33333C13.3333 7.70133 13.0347 8 12.6667 8H3.33333C2.23067 8 1.33333 8.89733 1.33333 10V28.6667C1.33333 29.7693 2.23067 30.6667 3.33333 30.6667H24.3907L30.6667 24.3907V10C30.6667 8.89733 29.7693 8 28.6667 8H19.3333C18.9653 8 18.6667 7.70133 18.6667 7.33333C18.6667 6.96533 18.9653 6.66667 19.3333 6.66667H28.6667C30.504 6.66667 32 8.16133 32 10V24.6667C32 24.844 31.9293 25.0133 31.8053 25.1387L25.1387 31.8053C25.0133 31.9293 24.844 32 24.6667 32ZM31.3333 24.6667H31.3467H31.3333Z" fill="black"/>
<path d="M24.6667 32C24.2987 32 24 31.7013 24 31.3333V24.6667C24 24.2987 24.2987 24 24.6667 24H31.3333C31.7013 24 32 24.2987 32 24.6667C32 25.0347 31.7013 25.3333 31.3333 25.3333H25.3333V31.3333C25.3333 31.7013 25.0347 32 24.6667 32Z" fill="black"/>
<path d="M16 12C15.632 12 15.3333 11.7013 15.3333 11.3333V4.66667C15.3333 4.29867 15.632 4 16 4C16.368 4 16.6666 4.29867 16.6666 4.66667V11.3333C16.6666 11.7013 16.368 12 16 12Z" fill="black"/>
<path d="M16 5.33333C14.5293 5.33333 13.3333 4.13733 13.3333 2.66667C13.3333 1.196 14.5293 0 16 0C17.4706 0 18.6666 1.196 18.6666 2.66667C18.6666 4.13733 17.4706 5.33333 16 5.33333ZM16 1.33333C15.2653 1.33333 14.6666 1.93067 14.6666 2.66667C14.6666 3.40267 15.2653 4 16 4C16.7346 4 17.3333 3.40267 17.3333 2.66667C17.3333 1.93067 16.7346 1.33333 16 1.33333Z" fill="black"/>
<path d="M26 16H5.99998C5.63198 16 5.33331 15.7013 5.33331 15.3333C5.33331 14.9653 5.63198 14.6667 5.99998 14.6667H26C26.368 14.6667 26.6666 14.9653 26.6666 15.3333C26.6666 15.7013 26.368 16 26 16Z" fill="black"/>
<path d="M26 21.3333H5.99998C5.63198 21.3333 5.33331 21.0347 5.33331 20.6667C5.33331 20.2987 5.63198 20 5.99998 20H26C26.368 20 26.6666 20.2987 26.6666 20.6667C26.6666 21.0347 26.368 21.3333 26 21.3333Z" fill="black"/>
<path d="M20.6666 26.6667H5.99998C5.63198 26.6667 5.33331 26.368 5.33331 26C5.33331 25.632 5.63198 25.3333 5.99998 25.3333H20.6666C21.0346 25.3333 21.3333 25.632 21.3333 26C21.3333 26.368 21.0346 26.6667 20.6666 26.6667Z" fill="black"/>
</g>
<defs>
<clipPath id="clip0">
<rect width="32" height="32" fill="white"/>
</clipPath>
</defs>
</svg>
