<svg width="212" height="58" viewBox="0 0 212 58" fill="none" xmlns="http://www.w3.org/2000/svg">
<path d="M156.364 18.9414H159.446V27.8728C159.446 29.6653 158.808 31.1959 157.535 32.4692C156.266 33.7392 154.726 34.3758 152.935 34.3758H137.717C135.926 34.3758 134.386 33.7392 133.116 32.4692C131.843 31.1955 131.206 29.6661 131.206 27.8728V10.0991H134.309V27.8728C134.309 28.8219 134.633 29.6281 135.301 30.2907C135.977 30.9628 136.785 31.3003 137.717 31.3003H152.935C153.88 31.3003 154.683 30.9578 155.352 30.2907C156.02 29.6236 156.364 28.8223 156.364 27.8728V18.9414ZM189.724 23.1097C191.734 23.1097 193.353 23.7012 194.557 24.8768C195.649 25.9395 196.196 27.2348 196.196 28.7496C196.196 30.2573 195.649 31.546 194.557 32.6221C193.339 33.7913 191.721 34.3758 189.724 34.3758H168.016V31.3003H189.724C190.816 31.3003 191.668 31.0346 192.274 30.5033C192.819 30.0379 193.093 29.4535 193.093 28.7496C193.093 28.0521 192.819 27.4675 192.274 27.0027C191.668 26.4708 190.816 26.2051 189.724 26.2051H174.506C172.495 26.2051 170.885 25.6408 169.673 24.5117C168.568 23.4818 168.016 22.253 168.016 20.8113C168.016 19.3567 168.569 18.1206 169.673 17.0917C170.884 15.963 172.495 15.4045 174.506 15.4045H180.717V18.4732L174.506 18.4932C173.402 18.4965 172.55 18.7347 171.937 19.2172C171.393 19.6441 171.118 20.1738 171.118 20.8113C171.118 21.4357 171.391 21.9604 171.937 22.3858C172.549 22.8707 173.401 23.1097 174.506 23.1097H189.724Z" fill="white"/>
<path d="M14.3144 23.2022C14.3144 21.05 15.0802 19.2167 16.6179 17.6957C18.1493 16.1675 19.993 15.4038 22.1567 15.4038H39.9247V18.4927H22.1567C20.8387 18.4927 19.7201 18.9576 18.8015 19.8742C17.8763 20.7978 17.4167 21.9069 17.4167 23.2022V26.5701C17.4167 27.8722 17.8814 28.9701 18.8015 29.8983C19.7247 30.8299 20.8387 31.2998 22.1567 31.2998H31.0409V34.3752H22.1567C19.9934 34.3752 18.1489 33.6178 16.6179 32.0968C15.0802 30.5695 14.3144 28.7223 14.3144 26.5701V23.2022ZM48.6812 15.4038H51.7833V34.3752H48.6812V15.4038ZM48.6812 6.82138H51.803V9.93022H48.6812V6.82138ZM80.9639 15.3839C83.1274 15.3839 84.9687 16.1516 86.5026 17.6756C88.0369 19.1999 88.806 21.0305 88.806 23.1823V39.6772H85.7038V32.7611C84.2992 33.8238 82.7213 34.3551 80.9639 34.3551H67.137C65.3331 34.3551 63.7819 33.711 62.4972 32.4289C61.2123 31.1603 60.5663 29.6126 60.5663 27.7992V21.9402C60.5663 20.1336 61.2123 18.5921 62.4972 17.31C63.7819 16.0217 65.3331 15.3839 67.137 15.3839H80.9639ZM80.9639 31.2797C82.2821 31.2797 83.4004 30.8148 84.3189 29.8782C85.2445 28.9613 85.7038 27.8522 85.7038 26.5501V23.1823C85.7038 21.8868 85.2445 20.7777 84.3189 19.8545C83.4004 18.9376 82.2821 18.4726 80.9639 18.4726H67.137C66.1784 18.4726 65.3594 18.8114 64.6803 19.489C63.995 20.1599 63.6488 20.977 63.6488 21.9402V27.7992C63.6488 28.7553 63.995 29.5724 64.6803 30.25C65.3594 30.9342 66.1784 31.2797 67.137 31.2797H80.9639ZM97.5692 15.4038H100.671V34.3752H97.5692V15.4038ZM97.5692 6.82138H100.691V9.93022H97.5692V6.82138ZM115.912 15.4038H122.636V18.4927H115.912V27.8187C115.912 28.7754 116.245 29.5925 116.924 30.2701C117.61 30.9543 118.435 31.2998 119.38 31.2998H122.636V34.3752H119.38C117.576 34.3752 116.025 33.7311 114.74 32.449C113.449 31.1798 112.81 29.6321 112.81 27.8187V18.4927H109.454V15.4038H112.81V6.83474H115.912V15.4038Z" fill="#AFAFAF"/>
<path d="M22.311 48.0283H19.7974V55H18.7715V48.0283H16.2632V47.1797H22.311V48.0283ZM36.1599 52.959H32.8835L32.1477 55H31.0842L34.0705 47.1797H34.9729L37.9646 55H36.9064L36.1599 52.959ZM33.195 52.1104H35.8537L34.5217 48.4526L33.195 52.1104ZM50.1215 51.5142C49.237 51.2599 48.5925 50.9484 48.1879 50.5796C47.7868 50.2072 47.5863 49.7489 47.5863 49.2046C47.5863 48.5887 47.8316 48.0802 48.3222 47.6792C48.8163 47.2746 49.4573 47.0723 50.245 47.0723C50.7821 47.0723 51.2602 47.1761 51.6791 47.3838C52.1016 47.5915 52.4275 47.8779 52.6566 48.2432C52.8894 48.6084 53.0058 49.0076 53.0058 49.4409H51.9691C51.9691 48.9683 51.8188 48.5977 51.518 48.3291C51.2172 48.057 50.7929 47.9209 50.245 47.9209C49.7366 47.9209 49.3391 48.0337 49.0526 48.2593C48.7698 48.4813 48.6283 48.791 48.6283 49.1885C48.6283 49.5072 48.7626 49.7775 49.0312 49.9995C49.3033 50.2179 49.7634 50.4185 50.4115 50.6011C51.0632 50.7837 51.5717 50.986 51.9369 51.208C52.3057 51.4264 52.5779 51.6825 52.7533 51.9761C52.9324 52.2697 53.0219 52.6152 53.0219 53.0127C53.0219 53.6465 52.7748 54.1549 52.2807 54.5381C51.7865 54.9176 51.1259 55.1074 50.2987 55.1074C49.7616 55.1074 49.2603 55.0054 48.7948 54.8013C48.3293 54.5936 47.9695 54.3107 47.7152 53.9526C47.4646 53.5946 47.3393 53.1882 47.3393 52.7334H48.3759C48.3759 53.2061 48.5495 53.5802 48.8969 53.856C49.2478 54.1281 49.7151 54.2642 50.2987 54.2642C50.843 54.2642 51.2602 54.1532 51.5502 53.9312C51.8402 53.7091 51.9853 53.4066 51.9853 53.0234C51.9853 52.6403 51.851 52.3449 51.5824 52.1372C51.3139 51.9259 50.8269 51.7183 50.1215 51.5142ZM65.1358 51.3638L64.1798 52.3574V55H63.1485V47.1797H64.1798V51.0469L67.6549 47.1797H68.901L65.8233 50.6333L69.1427 55H67.9073L65.1358 51.3638Z" fill="#B1B1B1"/>
<path d="M92.479 47.1797L94.2246 52.6206L95.9648 47.1797H98.4463V55H96.5557V53.1738L96.7383 49.4355L94.8477 55H93.6016L91.7056 49.4302L91.8882 53.1738V55H90.0029V47.1797H92.479ZM112.988 53.5391H110.404L109.953 55H107.939L110.807 47.1797H112.58L115.469 55H113.445L112.988 53.5391ZM110.856 52.0835H112.537L111.694 49.3711L110.856 52.0835ZM131.375 55H129.501L126.729 50.1338V55H124.844V47.1797H126.729L129.496 52.0459V47.1797H131.375V55ZM145.906 53.5391H143.323L142.872 55H140.858L143.726 47.1797H145.498L148.388 55H146.363L145.906 53.5391ZM143.774 52.0835H145.455L144.612 49.3711L143.774 52.0835ZM164.047 54.0332C163.757 54.3555 163.332 54.6151 162.774 54.812C162.215 55.009 161.603 55.1074 160.937 55.1074C159.913 55.1074 159.095 54.7941 158.482 54.1675C157.87 53.5409 157.542 52.6689 157.499 51.5518L157.494 50.875C157.494 50.1051 157.63 49.4338 157.902 48.8608C158.174 48.2843 158.563 47.8421 159.068 47.5342C159.576 47.2227 160.163 47.0669 160.829 47.0669C161.803 47.0669 162.559 47.2907 163.096 47.7383C163.637 48.1823 163.952 48.8465 164.041 49.731H162.226C162.161 49.2941 162.022 48.9826 161.807 48.7964C161.592 48.6102 161.288 48.5171 160.894 48.5171C160.421 48.5171 160.056 48.7176 159.798 49.1187C159.54 49.5197 159.41 50.0926 159.406 50.8374V51.3101C159.406 52.0907 159.539 52.6779 159.804 53.0718C160.072 53.4621 160.493 53.6572 161.066 53.6572C161.556 53.6572 161.922 53.548 162.161 53.3296V52.1157H160.851V50.8213H164.047V54.0332ZM178.792 51.686H175.828V53.5498H179.33V55H173.942V47.1797H179.34V48.6353H175.828V50.2842H178.792V51.686ZM191.803 52.2393H190.783V55H188.898V47.1797H191.975C192.903 47.1797 193.628 47.3856 194.151 47.7974C194.673 48.2091 194.935 48.791 194.935 49.543C194.935 50.0872 194.824 50.5384 194.602 50.8965C194.383 51.2546 194.04 51.5446 193.571 51.7666L195.203 54.9194V55H193.184L191.803 52.2393ZM190.783 50.7837H191.975C192.333 50.7837 192.602 50.6906 192.781 50.5044C192.964 50.3146 193.055 50.0514 193.055 49.7148C193.055 49.3783 192.964 49.1151 192.781 48.9253C192.598 48.7319 192.33 48.6353 191.975 48.6353H190.783V50.7837Z" fill="white"/>
</svg>
